<svg width="24" height="24" viewBox="0 0 24 24" fill="none" xmlns="http://www.w3.org/2000/svg">
<path fill-rule="evenodd" clip-rule="evenodd" d="M8.07897 15.2718C1.96921 18.2058 6.13427 20.76 10.5551 23.2309C10.6559 23.2871 10.7553 23.3427 10.8526 23.3971C11.0771 23.5226 11.2903 23.6417 11.4831 23.7483C9.43079 20.5779 11.9991 19.3321 14.6727 18.0351C16.7742 17.0157 18.9409 15.9647 18.9796 13.9225L18.9719 13.9225C18.9331 11.8805 16.7665 10.8295 14.665 9.81002C14.3061 9.63592 13.9491 9.46275 13.6049 9.28571C15.3601 8.34301 16.4313 7.71937 16.8183 7.41469C17.5484 6.84017 18.1012 6.21342 18.4202 5.4426C19.199 3.82211 19.2354 1.80761 18.2725 0.251954L11.4632 4.11577C11.4673 4.10945 11.4713 4.10313 11.4754 4.09679C11.2881 4.20036 11.0816 4.31576 10.8642 4.43725C10.7607 4.49507 10.6548 4.55426 10.5473 4.61422C6.12651 7.08512 1.96145 9.63926 8.07121 12.5734C8.30071 12.6906 8.59348 12.7986 8.89294 12.9091C9.61837 13.1766 10.3831 13.4587 10.3831 13.9225L10.3909 13.9225C10.3909 14.3864 9.62607 14.6685 8.90061 14.9361C8.60118 15.0466 8.30845 15.1546 8.07897 15.2718Z" fill="#3C3E4B"/>
</svg>
