<svg width="18" height="18" viewBox="0 0 18 18" fill="none" xmlns="http://www.w3.org/2000/svg">
<rect width="18" height="18" rx="9" fill="white"/>
<path d="M10.6099 9.78709C10.5693 10.0256 10.502 10.2632 10.3746 10.4687C10.2472 10.6741 10.0542 10.8464 9.82149 10.913C9.78069 10.9781 9.82481 11.0617 9.86814 11.1253L10.0606 11.4088C10.0868 11.4494 10.1187 11.4905 10.1652 11.4991C10.2117 11.5078 10.2514 11.4831 10.288 11.4578C10.6618 11.1992 10.8617 10.7595 11.0436 10.3423C11.1194 10.1687 11.2095 9.92031 11.0525 9.76381C10.9199 9.63217 10.6504 9.55071 10.6099 9.78709Z" fill="#5D5E60"/>
<path d="M9.1188 12.458C9.09261 12.4933 9.06151 12.5286 9.05997 12.5735C9.05632 12.6403 9.11643 12.6912 9.17079 12.7304L9.32131 12.839C9.3359 12.8512 9.35297 12.8602 9.37135 12.8652C9.40233 12.8675 9.43304 12.858 9.45726 12.8385C9.67175 12.6996 10.107 12.1735 9.85403 11.9191C9.45486 11.5179 9.29017 12.2264 9.1188 12.458Z" fill="#5D5E60"/>
<path d="M9.90364 15.6675C9.98296 15.6899 10.0552 15.7323 10.1136 15.7905C10.1424 15.8198 10.1645 15.8551 10.1781 15.8939C10.1918 15.9327 10.1967 15.974 10.1925 16.015C10.1763 16.1299 10.0765 16.2137 9.97588 16.2714C9.84591 16.3463 9.7036 16.3974 9.55566 16.4222C9.49887 16.4345 9.44012 16.4345 9.38334 16.4222C9.34795 16.4125 9.31418 16.3962 9.27852 16.3889C9.26067 16.3845 9.24192 16.3854 9.22459 16.3915C9.20726 16.3977 9.19212 16.4088 9.18103 16.4234C9.1741 16.4373 9.17126 16.4529 9.17285 16.4684C9.17443 16.4838 9.18037 16.4985 9.18997 16.5107C9.2096 16.5349 9.2352 16.5535 9.26424 16.5647C9.41514 16.6323 9.58684 16.594 9.7463 16.5499C10.1196 16.4468 10.3083 16.2607 10.3924 16.0577C10.429 15.9694 10.3567 15.8261 10.2954 15.7523C10.2311 15.6814 10.1546 15.6226 10.0694 15.5788C9.98688 15.5315 9.90222 15.4882 9.81547 15.4488C9.78562 15.4331 9.75305 15.4232 9.7195 15.4197C9.70271 15.4183 9.68583 15.4212 9.67056 15.4284C9.6553 15.4355 9.6422 15.4466 9.6326 15.4605C9.55062 15.5983 9.83 15.6444 9.90364 15.6675Z" fill="#3E3E3F"/>
<path d="M8.5354 16.6329C8.51469 16.6986 8.50385 16.767 8.50324 16.8359C8.50418 16.9256 8.52877 17.0129 8.54814 17.101C8.57636 17.22 8.5839 17.343 8.57044 17.4645C8.55662 17.5867 8.50442 17.7014 8.42133 17.7921C8.41231 17.7996 8.40559 17.8096 8.40195 17.8208C8.39748 17.8424 8.41761 17.8607 8.4354 17.8739C8.50203 17.9229 8.59007 17.9739 8.66206 17.9328C8.6837 17.9188 8.70233 17.9007 8.71688 17.8794C8.80713 17.7591 8.86872 17.6198 8.89696 17.4721C8.92519 17.3244 8.91932 17.1722 8.87979 17.0271C8.85969 16.9581 8.83178 16.8861 8.83958 16.8132C8.84768 16.7602 8.86676 16.7095 8.89559 16.6644C8.93312 16.5989 8.97623 16.5368 9.02443 16.4788C9.06727 16.427 9.11744 16.3688 9.10807 16.3023C9.09933 16.2609 9.07503 16.2243 9.04019 16.2003C8.7742 15.9945 8.59156 16.4421 8.5354 16.6329Z" fill="#3E3E3F"/>
<path d="M9.07415 16.6443L8.53349 16.3668C8.4431 16.3204 8.40324 16.2231 8.44412 16.1488L9.14481 14.8839C9.18576 14.8102 9.29205 14.7882 9.38218 14.8344L9.92284 15.1119C10.0132 15.1582 10.0531 15.2556 10.0122 15.3299L9.31162 16.5945C9.27084 16.6686 9.16455 16.6906 9.07415 16.6443Z" fill="#3E3E3F"/>
<path d="M9.08986 16.4706C9.03961 16.4449 9.01757 16.3908 9.04007 16.3498C9.06283 16.3089 9.12154 16.2966 9.17312 16.3228L9.39952 16.4387L9.49732 16.2605L9.28986 16.1538C9.23962 16.1282 9.21758 16.0741 9.24008 16.0331C9.26284 15.9922 9.32154 15.9799 9.37313 16.0061L9.57901 16.1112L9.65769 15.9691L9.45023 15.8625C9.39999 15.8368 9.37795 15.7827 9.40045 15.7417C9.42294 15.7007 9.48191 15.6885 9.5335 15.7147L9.74096 15.8214L9.82942 15.6614L9.62196 15.5548C9.57172 15.5291 9.54968 15.475 9.57218 15.434C9.59467 15.393 9.65364 15.3808 9.70523 15.407L9.91269 15.5137L10.0144 15.3299C10.0554 15.2562 10.0153 15.1588 9.92507 15.1119L9.38441 14.8344C9.29401 14.788 9.18772 14.8101 9.14704 14.8839L9.05683 15.0468L9.29364 15.1685C9.34389 15.1942 9.36593 15.2483 9.34343 15.2893C9.32094 15.3303 9.26196 15.3425 9.21038 15.3163L8.97356 15.1946L8.8851 15.3545L9.12191 15.4762C9.17215 15.5019 9.1942 15.556 9.1717 15.597C9.14894 15.6378 9.09023 15.6502 9.03865 15.624L8.80183 15.5023L8.72315 15.6444L8.95969 15.766C9.00994 15.7917 9.03198 15.8457 9.00948 15.8867C8.98699 15.9277 8.92801 15.9399 8.87643 15.9137L8.63988 15.7921L8.54207 15.9704L8.75985 16.0831C8.8101 16.1087 8.83214 16.1628 8.80964 16.2038C8.78715 16.2448 8.72817 16.257 8.67659 16.2308L8.45881 16.1181L8.44269 16.1471C8.40174 16.2208 8.44187 16.3182 8.53206 16.365L9.07272 16.6426C9.16311 16.6889 9.26941 16.6669 9.31035 16.5932L9.31349 16.5848L9.08986 16.4706Z" fill="#5D5E60"/>
<path d="M16.5562 7.83209C16.5605 7.82052 16.563 7.81406 16.563 7.81406C16.6559 7.54585 17.1977 5.84787 16.2482 5.14087C15.1038 4.28984 12.9011 3.59465 11.1079 3.07172C9.39677 2.57295 5.45434 2.23606 5.45434 2.23606L4.51968 4.71913C4.51968 4.71913 7.70581 7.06523 9.32108 7.81855C11.013 8.60901 13.1284 9.5377 14.5481 9.65182C15.7289 9.7467 16.4416 8.11276 16.5474 7.84968C16.5474 7.84968 16.5521 7.84376 16.5562 7.83209Z" fill="#FF7373"/>
<path d="M10.7441 10.375C10.2019 11.2971 9.53851 12.1561 8.98489 13.0727C8.7294 13.496 8.35925 14.0313 8.72446 14.4901C9.45946 15.4119 10.6293 15.5742 10.8753 15.3747C11.361 14.9821 11.6303 14.4387 11.8723 13.8994C12.5235 12.4485 13.0373 10.9398 13.407 9.3931C13.5389 8.84095 13.6533 8.28004 13.6456 7.69808C13.6423 7.42463 13.61 7.13997 13.4643 6.87408C13.3186 6.6082 13.0365 6.36102 12.7034 6.28385C12.3381 6.19917 11.977 6.33639 11.7954 6.57C11.5848 6.83972 11.6225 7.13868 11.6733 7.46563C11.7262 7.80012 11.6724 8.10213 11.5899 8.42188C11.4144 9.11402 11.1053 9.76074 10.7441 10.375Z" fill="#FF7373"/>
<path d="M8.76601 2.61627C7.12711 2.37784 5.45496 2.23595 5.45496 2.23595L4.52029 4.71902C4.52029 4.71902 5.87118 5.71443 7.2604 6.61614L8.76601 2.61627Z" fill="#F2E6C9"/>
<path d="M16.5477 7.85447C16.6406 7.58625 17.1824 5.88827 16.2329 5.18128C16.205 5.16065 16.1765 5.14009 16.148 5.11861C16.1616 5.48499 16.1062 5.84017 15.9016 6.13977C15.6578 6.49684 15.2486 6.69763 14.8553 6.87919C14.3927 7.09368 13.9191 7.30557 13.4136 7.37274C12.8642 7.44488 12.3096 7.34331 11.7709 7.21888C11.0446 7.05092 10.3285 6.84149 9.62614 6.5916C8.37261 6.14563 7.16741 5.57402 6.02892 4.88549C5.6003 4.62616 5.20011 4.3084 4.77992 4.03319L4.50645 4.7597C4.50645 4.7597 7.69066 7.106 9.30614 7.85879C10.9981 8.64925 13.1135 9.57794 14.5331 9.69205C15.714 9.78693 16.4267 8.153 16.5325 7.88992C16.5325 7.88992 16.5349 7.88346 16.5393 7.87189C16.5436 7.86032 16.546 7.85386 16.546 7.85386L16.5477 7.85447Z" fill="#CC4E4E"/>
<path d="M7.24075 6.66602L7.59849 5.71563C7.0664 5.45124 6.54748 5.16109 6.04175 4.84518C5.61576 4.57884 5.22003 4.24925 4.80298 3.9657L4.50419 4.75948C4.50419 4.75948 5.86186 5.73687 7.24075 6.66602Z" fill="#D6BFAA"/>
<path d="M13.4085 9.3882C13.4489 9.21906 13.4876 9.0493 13.522 8.87793C13.4115 8.72827 13.2825 8.59314 13.1382 8.47573C12.9355 8.31894 12.6761 8.2173 12.4217 8.25733C12.6602 9.68954 12.431 11.1605 11.768 12.4522C11.4728 13.0234 11.0748 13.5697 10.5087 13.8749C10.1303 14.0787 9.76088 14.0889 9.36941 13.9145C9.13395 13.8096 8.95122 13.6226 8.74526 13.4768C8.57293 13.8073 8.46972 14.1648 8.72432 14.4849C9.45932 15.4067 10.6292 15.569 10.8751 15.3694C11.3608 14.9769 11.6302 14.4334 11.8722 13.8941C12.5239 12.4434 13.0383 10.9349 13.4085 9.3882Z" fill="#CC4E4E"/>
<path d="M5.79894 2.26344L5.29333 2.07312L4.27765 4.77145L4.78325 4.96176L5.79894 2.26344Z" fill="#5D5E60"/>
<path d="M4.48056 1.66207C4.04875 1.4218 3.98829 0.847919 3.36092 0.565687C2.73355 0.283456 2.09558 0 2.09558 0L0.502362 4.23262C0.502362 4.23262 1.17034 4.44043 1.82665 4.6417C2.48295 4.84297 2.90828 4.45164 3.39134 4.55575C3.8744 4.65986 4.27196 4.78216 4.27196 4.78216L5.29191 2.07253C5.29191 2.07253 4.91614 1.90375 4.48056 1.66207Z" fill="#5D5E60"/>
<path d="M3.4358 4.15854C3.12232 4.1238 2.80602 4.13653 2.49057 4.12009C2.06909 4.09722 1.65125 4.01736 1.241 3.91731C1.07216 3.87618 0.878335 3.7937 0.688616 3.73703L0.50215 4.23241C0.50215 4.23241 1.17013 4.44022 1.82643 4.64149C2.48274 4.84276 2.90807 4.45142 3.39113 4.55553C3.87419 4.65964 4.27175 4.78195 4.27175 4.78195L4.41355 4.40524C4.09902 4.28311 3.77062 4.20026 3.4358 4.15854Z" fill="#464647"/>
<path d="M4.31447 4.67274C4.31447 4.67274 5.20142 2.31641 5.18673 2.33423C5.17203 2.35204 3.96643 4.49719 3.96643 4.49719L4.31447 4.67274Z" fill="#464647"/>
<path d="M4.98731 4.41979L4.48145 4.22937L4.27189 4.7861L4.77776 4.97651L4.98731 4.41979Z" fill="#464647"/>
<path opacity="0.14" d="M1.95621 1.14306C1.98331 1.17637 2.01827 1.20241 2.05794 1.21883C2.64663 1.52112 3.22175 1.8483 3.78331 2.20037C3.98065 2.32411 4.1884 2.46591 4.26791 2.68477C4.32586 2.84421 4.30576 3.02004 4.28512 3.1883C4.52112 2.93921 4.55912 2.5265 4.37325 2.23842C4.16945 1.92455 3.77875 1.80359 3.44818 1.63062C3.09921 1.44858 2.79714 1.19172 2.48995 0.947672C2.42611 0.896915 2.35975 0.845516 2.28143 0.823411C2.11691 0.776534 1.82061 0.944251 1.95621 1.14306Z" fill="white"/>
<path opacity="0.36" d="M6.51747 2.89612C6.46053 2.9478 6.42953 3.03506 6.46236 3.10455C6.48871 3.16024 6.54772 3.19198 6.60416 3.21752C7.11903 3.45096 7.69964 3.47628 8.26374 3.51443C10.2376 3.64976 12.2086 4.00489 14.0514 4.72589C14.1017 4.75018 14.1569 4.76256 14.2128 4.7621C14.2684 4.75722 14.3252 4.71745 14.3295 4.66193C14.3348 4.59571 14.2697 4.54727 14.2115 4.51584C13.5227 4.1309 12.7502 3.92645 11.9872 3.72556C11.2874 3.54143 10.5875 3.35793 9.88727 3.17505C9.38237 3.04245 8.87481 2.91284 8.35796 2.8381C8.04215 2.79256 7.72366 2.76812 7.40459 2.76494C7.14757 2.7622 6.72533 2.70709 6.51747 2.89612Z" fill="white"/>
</svg>
