<svg width="24" height="24" viewBox="0 0 24 24" fill="none" xmlns="http://www.w3.org/2000/svg">
<path d="M19.2558 5.73438H13.6015C13.2835 5.73438 12.9786 5.86067 12.7538 6.08548C12.529 6.31029 12.4027 6.6152 12.4027 6.93313V22.19C12.4027 22.5542 12.5474 22.9034 12.8049 23.1609C13.0624 23.4185 13.4117 23.5631 13.7758 23.5631H19.069C19.4332 23.5631 19.7825 23.4185 20.04 23.1609C20.2975 22.9034 20.4422 22.5542 20.4422 22.19V6.93313C20.4422 6.61735 20.3176 6.31431 20.0955 6.08986C19.8733 5.8654 19.5716 5.73766 19.2558 5.73438Z" fill="#4292A6"/>
<path d="M19.2527 4.10571H13.5049V5.73415H19.2527V4.10571Z" fill="#333333"/>
<path d="M17.3627 2.14111H15.3856C15.0751 2.14111 14.7773 2.26446 14.5577 2.48401C14.3382 2.70357 14.2148 3.00135 14.2148 3.31184V4.10583H18.5335V3.31184C18.5335 3.00135 18.4101 2.70357 18.1906 2.48401C17.971 2.26446 17.6732 2.14111 17.3627 2.14111Z" fill="#474747"/>
<path d="M16.385 0.00203185C16.3115 0.000791821 16.2384 0.0142116 16.1701 0.0415085C16.1018 0.0688054 16.0395 0.109433 15.9871 0.161022C15.9346 0.212611 15.893 0.274128 15.8645 0.341987C15.8361 0.409845 15.8215 0.482686 15.8215 0.556261V2.14422H16.9424V0.556261C16.9424 0.483216 16.9279 0.410891 16.8999 0.343445C16.8719 0.275999 16.8308 0.214763 16.779 0.163257C16.7272 0.111751 16.6657 0.0709919 16.5981 0.043323C16.5305 0.0156542 16.4581 0.00162149 16.385 0.00203185Z" fill="#474747"/>
<path d="M16.9393 1.63037H15.8215V2.14101H16.9393V1.63037Z" fill="#2E2E2E"/>
<path d="M18.9569 22.3456C18.8281 22.3456 18.7045 22.2944 18.6135 22.2033C18.5224 22.1122 18.4712 21.9887 18.4712 21.8599V14.8822C18.481 14.7605 18.5362 14.6469 18.6259 14.5641C18.7156 14.4813 18.8333 14.4353 18.9554 14.4353C19.0775 14.4353 19.1951 14.4813 19.2848 14.5641C19.3745 14.6469 19.4298 14.7605 19.4395 14.8822V21.863C19.4387 21.9907 19.3876 22.113 19.2973 22.2033C19.2069 22.2937 19.0847 22.3448 18.9569 22.3456Z" fill="white"/>
<path d="M20.4515 8.42456H12.4027V12.9144H20.4515V8.42456Z" fill="#163138"/>
<path d="M16.3259 9.09692H14.6819C13.865 9.09692 13.2029 9.75909 13.2029 10.5759V10.6039C13.2029 11.4207 13.865 12.0829 14.6819 12.0829H16.3259C17.1427 12.0829 17.8049 11.4207 17.8049 10.6039V10.5759C17.8049 9.75909 17.1427 9.09692 16.3259 9.09692Z" fill="#295C69"/>
<path d="M13.9627 4.40168C13.8867 4.40168 13.8138 4.43186 13.7601 4.48558C13.7064 4.5393 13.6762 4.61216 13.6762 4.68813V5.73432H14.2553V4.68813C14.2554 4.64999 14.2477 4.61222 14.233 4.57706C14.2182 4.54189 14.1965 4.51003 14.1693 4.48335C14.142 4.45666 14.1097 4.43569 14.0742 4.42167C14.0387 4.40765 14.0008 4.40085 13.9627 4.40168Z" fill="#212121"/>
<path d="M14.931 4.40168C14.855 4.40168 14.7822 4.43186 14.7284 4.48558C14.6747 4.5393 14.6445 4.61216 14.6445 4.68813V5.73432H15.2237V4.68813C15.2237 4.64999 15.2161 4.61222 15.2013 4.57706C15.1865 4.54189 15.1648 4.51003 15.1376 4.48335C15.1103 4.45666 15.078 4.43569 15.0425 4.42167C15.007 4.40765 14.9691 4.40085 14.931 4.40168Z" fill="#212121"/>
<path d="M15.8993 4.40168C15.8233 4.40168 15.7505 4.43186 15.6968 4.48558C15.643 4.5393 15.6129 4.61216 15.6129 4.68813V5.73432H16.192V4.68813C16.192 4.64999 16.1844 4.61222 16.1696 4.57706C16.1548 4.54189 16.1332 4.51003 16.1059 4.48335C16.0786 4.45666 16.0463 4.43569 16.0108 4.42167C15.9754 4.40765 15.9374 4.40085 15.8993 4.40168Z" fill="#212121"/>
<path d="M16.8677 4.40168C16.7917 4.40168 16.7189 4.43186 16.6651 4.48558C16.6114 4.5393 16.5812 4.61216 16.5812 4.68813V5.73432H17.1604V4.68813C17.1604 4.64999 17.1528 4.61222 17.138 4.57706C17.1232 4.54189 17.1015 4.51003 17.0743 4.48335C17.047 4.45666 17.0147 4.43569 16.9792 4.42167C16.9438 4.40765 16.9058 4.40085 16.8677 4.40168Z" fill="#212121"/>
<path d="M17.836 4.40168C17.76 4.40168 17.6872 4.43186 17.6335 4.48558C17.5797 4.5393 17.5496 4.61216 17.5496 4.68813V5.73432H18.1287V4.68813C18.1287 4.64999 18.1211 4.61222 18.1063 4.57706C18.0915 4.54189 18.0699 4.51003 18.0426 4.48335C18.0153 4.45666 17.983 4.43569 17.9476 4.42167C17.9121 4.40765 17.8742 4.40085 17.836 4.40168Z" fill="#212121"/>
<path d="M18.8106 4.40161C18.7346 4.40161 18.6617 4.43179 18.608 4.48551C18.5543 4.53923 18.5241 4.61209 18.5241 4.68807V5.73425H19.0908V4.68807C19.0908 4.61316 19.0615 4.54123 19.0091 4.48768C18.9567 4.43414 18.8855 4.40324 18.8106 4.40161Z" fill="#212121"/>
<path d="M9.46964 14.7919C9.46964 14.7919 7.23404 12.4069 5.3067 14.1972C0.65802 18.9953 6.49922 24.0114 8.25843 23.9025C9.12403 23.8495 9.23923 23.7032 9.4821 23.7312C9.72496 23.7592 10.027 23.9492 10.4411 23.9928C12.2501 24.1889 18.1598 19.1106 13.2745 14.1941C11.9325 12.9611 9.46964 14.7919 9.46964 14.7919Z" fill="#CC4E4E"/>
<path d="M13.7017 16.4809C13.9041 16.3603 13.8684 15.9273 13.622 15.5136C13.3756 15.0999 13.0118 14.8623 12.8094 14.9829C12.607 15.1034 12.6426 15.5365 12.889 15.9502C13.1354 16.3639 13.4992 16.6015 13.7017 16.4809Z" fill="white"/>
<path d="M7.23718 10.6414C7.23718 10.6414 7.23718 15.9968 9.46655 14.795C11.6959 13.5931 7.23718 10.6414 7.23718 10.6414Z" fill="#64B044"/>
<path d="M7.44891 11.0337L8.84071 14.0851L9.46344 14.795L9.21747 13.8827L7.44891 11.0337Z" fill="#477D30"/>
<path d="M9.42603 14.9723C9.42603 14.9723 10.0643 11.4166 10.4473 11.1612C10.8303 10.9059 10.8521 11.4726 11.1915 11.566C10.301 12.2448 9.42603 14.9723 9.42603 14.9723Z" fill="#663F30"/>
</svg>
