<svg width="18" height="18" viewBox="0 0 18 18" fill="none" xmlns="http://www.w3.org/2000/svg">
<rect width="18" height="18" rx="9" fill="white"/>
<path d="M10.2272 15.2048C12.0522 12.9337 14.4891 11.2323 17.25 10.3016C16.9931 11.9284 16.1142 13.3918 14.7989 14.383C13.4676 15.3806 11.8799 15.3985 10.2272 15.2048Z" fill="#659B00"/>
<path d="M13.6143 12.8915L14.5694 12.8378C13.3451 13.8607 11.9144 14.607 10.375 15.0257C10.3257 15.085 10.2753 15.1377 10.2272 15.2037C11.8799 15.3974 13.4676 15.3795 14.7989 14.3819C16.1142 13.3907 16.9931 11.9273 17.25 10.3005L17.2276 10.3084C16.1895 11.3812 14.9652 12.2564 13.6143 12.8915Z" fill="#588700"/>
<path d="M10.5663 12.6564C11.8165 10.0247 13.7937 7.80575 16.2645 6.26172C16.3908 7.90408 15.8741 9.53129 14.8234 10.7999C13.7597 12.0764 12.219 12.4638 10.5663 12.6564Z" fill="#659B00"/>
<path d="M13.3266 9.62308L14.2437 9.34987C13.2891 10.6284 12.0695 11.6857 10.6684 12.4492C10.6349 12.5186 10.599 12.5869 10.5654 12.6564C12.2181 12.4627 13.7588 12.0786 14.8203 10.7988C15.8707 9.53045 16.3874 7.90371 16.2614 6.26172L16.2412 6.27516C15.4803 7.55834 14.4928 8.69272 13.3266 9.62308Z" fill="#588700"/>
<path d="M7.62836 11.3172C11.4272 11.3172 14.5067 10.4856 14.5067 9.45964C14.5067 8.43372 11.4272 7.60205 7.62836 7.60205C3.82955 7.60205 0.75 8.43372 0.75 9.45964C0.75 10.4856 3.82955 11.3172 7.62836 11.3172Z" fill="#D6D6D6"/>
<path d="M7.62842 11.0238C11.1675 11.0238 14.0365 10.3235 14.0365 9.45962C14.0365 8.59572 11.1675 7.89539 7.62842 7.89539C4.08933 7.89539 1.22034 8.59572 1.22034 9.45962C1.22034 10.3235 4.08933 11.0238 7.62842 11.0238Z" fill="#B3B3B3"/>
<path d="M7.62844 7.89539C6.81329 7.89539 6.03509 7.93234 5.31848 8.00064C7.75272 8.33655 9.64055 9.47865 10.0974 10.904C12.4107 10.6678 14.0365 10.1102 14.0365 9.45962C14.0376 8.5952 11.1678 7.89539 7.62844 7.89539Z" fill="#A1A1A1"/>
<path d="M7.62836 11.3172C3.82919 11.3172 0.75 10.4852 0.75 9.45959C0.75 11.2838 1.47468 13.0334 2.76462 14.3233C4.05457 15.6133 5.8041 16.338 7.62836 16.338C9.45261 16.338 11.2022 15.6133 12.4921 14.3233C13.782 13.0334 14.5067 11.2838 14.5067 9.45959C14.5067 10.4852 11.4275 11.3172 7.62836 11.3172Z" fill="#EDEDED"/>
<path d="M9.85317 11.2164C9.56053 12.3103 9.00242 13.315 8.22834 14.1414C7.45427 14.9678 6.48817 15.5904 5.41577 15.9539C6.44941 16.3045 7.55164 16.4042 8.63142 16.2447C9.7112 16.0853 10.7376 15.6712 11.6257 15.0367C12.5138 14.4023 13.2383 13.5656 13.7393 12.5958C14.2402 11.6261 14.5032 10.5511 14.5067 9.45959C14.5067 10.2747 12.5595 10.9667 9.85317 11.2164Z" fill="#E0E0E0"/>
<path d="M2.0791 10.2423C3.18761 10.7103 5.25683 11.0261 7.62837 11.0261C9.99991 11.0261 12.0691 10.7114 13.1776 10.2423C12.0691 9.77425 9.99991 9.4585 7.62837 9.4585C5.25683 9.4585 3.18985 9.77425 2.0791 10.2423Z" fill="#647034"/>
<path d="M13.4208 2.86005C13.3838 2.43344 13.1476 2.00011 12.749 1.84C12.6787 1.81179 12.606 1.79005 12.5317 1.77505C12.4635 1.74136 12.3923 1.714 12.319 1.69331C11.9058 1.58134 11.4557 1.78177 11.1679 2.09977C10.8802 2.41776 10.7279 2.83318 10.6081 3.24411C10.3326 4.19026 10.1983 5.17112 9.97881 6.13183C9.75934 7.09254 9.44919 8.05437 8.86694 8.84936C8.325 9.58949 7.54904 10.193 7.18738 11.0194C7.33667 11.0194 7.48597 11.0194 7.63526 11.0194C8.84129 11.026 10.0459 10.9354 11.2374 10.7484C11.1963 10.3735 11.175 9.9968 11.1735 9.61972C11.1915 8.63438 11.5251 7.68151 11.9316 6.7835C12.338 5.8855 12.8273 5.02332 13.1789 4.10404C13.3267 3.70991 13.4566 3.28666 13.4208 2.86005Z" fill="#7D7D7D"/>
<path d="M13.1734 4.1096C13.3268 3.70986 13.4578 3.28661 13.4208 2.86001C13.3839 2.4334 13.1476 2.00007 12.749 1.83995L12.7132 1.82764C12.852 2.94063 12.5553 4.07825 12.0929 5.10502C11.6024 6.19561 10.9317 7.19327 10.3528 8.2402C9.87696 9.10013 9.45707 10.0116 9.27344 10.9712C9.97997 10.9253 10.6395 10.8514 11.2284 10.7539C11.1874 10.3791 11.1661 10.0024 11.1646 9.62527C11.1825 8.63993 11.5162 7.68706 11.9227 6.78906C12.3291 5.89105 12.8195 5.02888 13.1734 4.1096Z" fill="#616161"/>
</svg>
