<svg width="18" height="18" viewBox="0 0 18 18" fill="none" xmlns="http://www.w3.org/2000/svg">
<path d="M14.179 11.9283C14.765 14.2312 15.4848 16.0347 11.1238 17.1445C7.11044 18.1603 6.53126 16.3196 5.94686 14.0233C5.80394 13.4799 5.76958 12.9136 5.84573 12.3568C5.92188 11.8001 6.10706 11.2639 6.39067 10.7788C6.67427 10.2937 7.05074 9.86926 7.49854 9.5298C7.94633 9.19035 8.45666 8.94252 9.00033 8.8005C9.54576 8.66536 10.1125 8.63909 10.6681 8.72319C11.2236 8.80729 11.7572 9.00012 12.2382 9.29063C12.7192 9.58114 13.1382 9.96363 13.4712 10.4162C13.8042 10.8688 14.0447 11.3827 14.179 11.9283Z" fill="#E077F2"/>
<path d="M12.9474 13.3198C11.3501 15.5601 8.10696 16.0546 6.25898 14.0322C6.26266 14.0467 6.26668 14.0625 6.27037 14.0769C6.81556 16.2192 7.35465 17.9299 11.0862 16.9802C15.143 15.9478 14.4732 14.269 13.9284 12.1281C13.9026 12.0267 13.8771 11.9266 13.8388 11.8312C13.5483 12.3257 13.2624 12.8275 12.9474 13.3198Z" fill="#D366ED"/>
<path d="M10.2287 8.20598C9.14768 8.09553 8.46669 8.28987 7.56497 8.88386C7.56497 8.88386 7.51768 9.3922 7.4962 9.61077C7.55157 9.6135 9.95407 9.35259 10.5673 8.71005C10.43 8.50665 10.2287 8.20598 10.2287 8.20598Z" fill="#D366ED"/>
<path opacity="0.2" d="M10.7279 8.11834L8.4897 1.09755C8.19719 0.34482 5.58287 1.01294 5.7246 1.80124L7.0792 9.03567C7.13261 9.50997 10.9647 8.56419 10.7279 8.11834Z" fill="#36363D"/>
<path d="M7.44566 8.82881C7.44566 8.82881 6.52607 2.46087 6.74035 2.09089C6.95463 1.7209 8.10682 1.20757 8.10682 1.20757C8.10682 1.20757 6.63555 0.995963 6.18149 1.78447C5.91425 2.25485 7.44566 8.82881 7.44566 8.82881Z" fill="#5D5D5D"/>
<path d="M6.19295 11.8773C6.19295 11.8773 9.01131 12.2368 13.0128 10.2819C13.2328 10.7383 13.4085 11.2147 13.5375 11.7046C13.5375 11.7046 10.7035 14.0325 6.24678 13.4661C6.24709 13.4618 6.13517 13.022 6.19295 11.8773Z" fill="#D366ED"/>
</svg>
