<?xml version="1.0" encoding="utf-8"?>
<!-- Generator: Adobe Illustrator 22.1.0, SVG Export Plug-In . SVG Version: 6.00 Build 0)  -->
<svg version="1.1" id="Icon_Set" xmlns="http://www.w3.org/2000/svg" xmlns:xlink="http://www.w3.org/1999/xlink" x="0px" y="0px"
	 viewBox="0 0 512 512" style="enable-background:new 0 0 512 512;" xml:space="preserve">
<style type="text/css">
	.st0{fill:#F0C48A;}
	.st1{fill:#FD919E;}
	.st2{fill:#4C4372;}
	.st3{fill:#D3E6F8;}
	.st4{fill:#A4CFF2;}
	.st5{fill:#7BABF1;}
	.st6{fill:#FFFFFF;}
	.st7{fill:#E8677D;}
	.st8{fill:none;stroke:#4C4372;stroke-width:12;stroke-linecap:round;stroke-linejoin:round;stroke-miterlimit:10;}
</style>
<g id="Health_Insurance">
	<g>
		<g>
			<circle class="st0" cx="256" cy="256" r="207"/>
		</g>
	</g>
	<g>
		<g>
			<g>
				<g>
					<polygon class="st6" points="330.199,391.417 122.687,391.417 122.687,120.582 273.951,120.582 330.199,176.829 					"/>
				</g>
				<g>
					<polygon class="st5" points="273.951,176.829 330.199,176.829 302.075,148.706 273.951,120.582 					"/>
				</g>
			</g>
			<g>
				<rect x="295.734" y="176.829" class="st3" width="34.465" height="214.588"/>
			</g>
			<g>
				<g>
					<polygon class="st1" points="272.508,203.913 242.245,203.913 242.245,173.65 210.641,173.65 210.641,203.913 180.377,203.913 
						180.377,235.517 210.641,235.517 210.641,265.781 242.245,265.781 242.245,235.517 272.508,235.517 					"/>
				</g>
				<g>
					<path class="st2" d="M242.245,271.781h-31.604c-3.313,0-6-2.686-6-6v-24.263h-24.263c-3.313,0-6-2.686-6-6v-31.604
						c0-3.314,2.687-6,6-6h24.263V173.65c0-3.314,2.687-6,6-6h31.604c3.313,0,6,2.686,6,6v24.263h24.263c3.313,0,6,2.686,6,6v31.604
						c0,3.314-2.687,6-6,6h-24.263v24.263C248.245,269.094,245.558,271.781,242.245,271.781z M216.641,259.781h19.604v-24.263
						c0-3.314,2.687-6,6-6h24.263v-19.604h-24.263c-3.313,0-6-2.686-6-6V179.65h-19.604v24.263c0,3.314-2.687,6-6,6h-24.263v19.604
						h24.263c3.313,0,6,2.686,6,6V259.781z"/>
				</g>
			</g>
			<g>
				<g>
					<path class="st2" d="M330.198,397.417H122.687c-3.314,0-6-2.686-6-6V120.583c0-3.314,2.686-6,6-6h151.264
						c1.592,0,3.117,0.632,4.242,1.757l56.247,56.247c1.126,1.125,1.758,2.651,1.758,4.243v214.588
						C336.198,394.731,333.512,397.417,330.198,397.417z M128.687,385.417h195.511V179.315l-52.732-52.732H128.687V385.417z"/>
				</g>
				<g>
					<path class="st2" d="M330.198,182.83h-56.247c-3.313,0-6-2.686-6-6v-56.247c0-2.427,1.462-4.615,3.704-5.543
						c2.24-0.929,4.822-0.416,6.538,1.301l56.247,56.247c1.717,1.716,2.229,4.297,1.301,6.539S332.625,182.83,330.198,182.83z
						 M279.951,170.83h35.762l-35.762-35.762V170.83z"/>
				</g>
			</g>
			<g>
				<path class="st2" d="M295.733,298.782H157.152c-3.314,0-6-2.686-6-6s2.686-6,6-6h138.582c3.313,0,6,2.686,6,6
					S299.047,298.782,295.733,298.782z"/>
			</g>
			<g>
				<path class="st2" d="M295.733,332.338H157.152c-3.314,0-6-2.686-6-6s2.686-6,6-6h138.582c3.313,0,6,2.686,6,6
					S299.047,332.338,295.733,332.338z"/>
			</g>
			<g>
				<path class="st2" d="M295.733,365.894H157.152c-3.314,0-6-2.686-6-6s2.686-6,6-6h138.582c3.313,0,6,2.686,6,6
					S299.047,365.894,295.733,365.894z"/>
			</g>
		</g>
		<g>
			<g>
				<path class="st1" d="M271.084,270.009v19.019c0,42.239,22.534,81.27,59.115,102.39l0,0l0,0
					c36.58-21.12,59.115-60.15,59.115-102.39v-19.019l-59.115-34.13L271.084,270.009z"/>
			</g>
			<g>
				<path class="st7" d="M389.313,289.028v-19.019l-27.448-15.847c7.701,87.309-31.666,137.256-31.666,137.256v0
					C366.779,370.298,389.313,331.267,389.313,289.028z"/>
			</g>
			<g>
				<path class="st2" d="M330.198,397.417c-1.036,0-2.071-0.268-3-0.804c-38.313-22.12-62.114-63.345-62.114-107.586v-19.019
					c0-2.144,1.144-4.124,3-5.196l59.114-34.13c1.855-1.072,4.143-1.072,6,0l59.115,34.13c1.856,1.072,3,3.053,3,5.196v19.019
					c0,44.241-23.801,85.466-62.115,107.586C332.271,397.149,331.234,397.417,330.198,397.417z M277.084,273.473v15.554
					c0,38.799,20.265,75.031,53.114,95.398c32.85-20.367,53.115-56.599,53.115-95.398v-15.554l-53.115-30.666L277.084,273.473z"/>
			</g>
			<g>
				<path class="st2" d="M330.198,341.145c-1.701,0-3.323-0.722-4.463-1.989l-28.123-31.292c-2.215-2.465-2.013-6.258,0.452-8.473
					s6.257-2.012,8.474,0.452l23.502,26.15l31.061-37.065c2.129-2.541,5.916-2.873,8.452-0.745c2.54,2.128,2.874,5.913,0.745,8.452
					l-35.501,42.363c-1.116,1.333-2.757,2.115-4.495,2.145C330.268,341.145,330.232,341.145,330.198,341.145z"/>
			</g>
		</g>
	</g>
</g>
</svg>
