<svg xmlns="http://www.w3.org/2000/svg" xmlns:xlink="http://www.w3.org/1999/xlink" viewBox="0 0 512 512"><defs><linearGradient id="linear-gradient" x1="54.2653" y1="98.7153" x2="276.6929" y2="272.1334" gradientUnits="userSpaceOnUse"><stop offset="0.003" stop-color="#6d8175"/><stop offset="0.6061" stop-color="#42615f"/><stop offset="1" stop-color="#244b50"/></linearGradient><linearGradient id="linear-gradient-2" x1="395.7951" y1="306.0429" x2="214.6278" y2="144.0375" gradientUnits="userSpaceOnUse"><stop offset="0.007" stop-color="#fbefe1"/><stop offset="0.4312" stop-color="#fbefe1" stop-opacity="0.9919"/><stop offset="0.6119" stop-color="#fbefe0" stop-opacity="0.9635"/><stop offset="0.7464" stop-color="#fbeee0" stop-opacity="0.9144"/><stop offset="0.858" stop-color="#faedde" stop-opacity="0.8444"/><stop offset="0.9543" stop-color="#faeddd" stop-opacity="0.7545"/><stop offset="1" stop-color="#faecdc" stop-opacity="0.7"/></linearGradient><linearGradient id="linear-gradient-3" x1="78.7041" y1="376.5453" x2="199.3139" y2="376.5453" gradientUnits="userSpaceOnUse"><stop offset="0.003" stop-color="#65b7a7"/><stop offset="0.1484" stop-color="#64b5a5" stop-opacity="0.9778"/><stop offset="0.2961" stop-color="#5fad9f" stop-opacity="0.9111"/><stop offset="0.4448" stop-color="#58a196" stop-opacity="0.7999"/><stop offset="0.5943" stop-color="#4e9188" stop-opacity="0.644"/><stop offset="0.7445" stop-color="#417b77" stop-opacity="0.4431"/><stop offset="0.8931" stop-color="#316161" stop-opacity="0.2009"/><stop offset="1" stop-color="#244b50" stop-opacity="0"/></linearGradient><linearGradient id="linear-gradient-4" x1="78.7041" y1="350.8544" x2="162.5454" y2="350.8544" xlink:href="#linear-gradient-3"/><linearGradient id="linear-gradient-5" x1="433.2959" y1="135.4547" x2="359.0913" y2="135.4547" gradientUnits="userSpaceOnUse"><stop offset="0.003" stop-color="#65b7a7"/><stop offset="0.269" stop-color="#64b6a6" stop-opacity="0.9867"/><stop offset="0.42" stop-color="#61b1a2" stop-opacity="0.9423"/><stop offset="0.5422" stop-color="#5ca99b" stop-opacity="0.8661"/><stop offset="0.6491" stop-color="#559d92" stop-opacity="0.7581"/><stop offset="0.7459" stop-color="#4c8e86" stop-opacity="0.6181"/><stop offset="0.8355" stop-color="#417b77" stop-opacity="0.4458"/><stop offset="0.9178" stop-color="#346565" stop-opacity="0.2453"/><stop offset="0.9954" stop-color="#254d51" stop-opacity="0.0149"/><stop offset="1" stop-color="#244b50" stop-opacity="0"/></linearGradient><linearGradient id="linear-gradient-6" x1="351.5038" y1="355.573" x2="170.3365" y2="193.5676" xlink:href="#linear-gradient-2"/></defs><g id="Ultrasound"><rect x="51.505" y="102.2556" width="408.9899" height="307.4888" style="fill:url(#linear-gradient)"/><path d="M256,201.9229a67.4823,67.4823,0,0,1-48.8535-20.6861l8.6172-8.3515a56.03,56.03,0,0,0,80.4726,0l8.6172,8.3515A67.4823,67.4823,0,0,1,256,201.9229Z" style="fill:url(#linear-gradient-2)"/><rect x="78.7041" y="370.5453" width="120.6098" height="12" style="fill:url(#linear-gradient-3)"/><rect x="78.7041" y="344.8544" width="83.8413" height="12" style="fill:url(#linear-gradient-4)"/><rect x="359.0913" y="129.4547" width="74.2046" height="12" style="fill:url(#linear-gradient-5)"/><path d="M396.44,271.7534,375.75,251.7027c-31.1683,28.77-67.9736,45.5747-106.8135,48.6782l-.956-11.962c35.922-2.87,70.069-18.4286,99.1387-45.08L314.2653,192.12a1.7114,1.7114,0,0,0-2.3992.0258,79.4491,79.4491,0,0,1-111.7322,0,1.7114,1.7114,0,0,0-2.3991-.0259L168.291,220.6534c13.2045,13.5744,29.3681,23.6571,57.8032,29.4682l-2.4023,11.7568c-31.5792-6.4533-49.62-17.9679-64.04-32.8534L115.56,271.7534a1.71,1.71,0,0,0-.0317,2.4242c77.2306,78.3488,203.7131,78.3488,280.9436,0A1.71,1.71,0,0,0,396.44,271.7534Z" style="fill:url(#linear-gradient-6)"/></g></svg>